PathFileType	4	(X/Y/Z)	C:\Users\WrightLab\Desktop\Jo\P5V211.trc
DataRate	CameraRate	NumFrames	NumMarkers	Units	OrigDataRate	OrigDataStartFrame	OrigNumFrames
100.00	100.00	       10	19	mm	100.00	472	       754
Frame#	Time	Headset_Front			Headset_Back			Headset_Left			Headset_Right			Left_Shoulder			Right_Shoulder			Sternum			C7			Left Elbow			Right Elbow			Left Wrist			Right Wrist			Left ASIS			Right ASIS			S2			Left Knee			Right Knee			Left Ankle			Right Ankle			
		X1	Y1	Z1	X2	Y2	Z2	X3	Y3	Z3	X4	Y4	Z4	X5	Y5	Z5	X6	Y6	Z6	X7	Y7	Z7	X8	Y8	Z8	X9	Y9	Z9	X10	Y10	Z10	X11	Y11	Z11	X12	Y12	Z12	X13	Y13	Z13	X14	Y14	Z14	X15	Y15	Z15	X16	Y16	Z16	X17	Y17	Z17	X18	Y18	Z18	X19	Y19	Z19	

472	4.710	34.11216	1462.85852	-97.05785							-71.75224	1555.48840	-42.65847	-65.28100	1517.02856	-429.46750	-213.91768	1452.20361	-61.26697	-78.90993	1323.26990	-211.05681	-269.12161	1533.64563	-279.41476	-15.16450	1222.42102	-495.88837	-157.48836	1204.61780	63.17821	44.89311	982.17432	-425.54828	59.67758	1093.29065	106.65747	8.42898	944.99860	-321.31668	-141.19435	951.29199	-89.28085	-276.60733	982.24438	-378.67426	18.57166	502.82938	-365.50989	-249.53546	499.42700	-52.36293	-42.48068	87.00261	-380.26331	-326.55963	98.29060	-195.49998	
473	4.720	36.04211	1462.64929	-97.38882							-70.93085	1555.48901	-42.64030	-63.98935	1517.01404	-429.73276	-210.44789	1452.96802	-60.38603	-78.33505	1323.11938	-211.47478	-267.28058	1533.57190	-279.06784	-14.75628	1222.01819	-496.45956	-154.84903	1205.17188	63.31239	45.82014	982.41553	-425.63211	62.13217	1093.85974	107.18491	9.20706	944.45343	-321.52646	-140.65012	951.10168	-89.53856	-276.07394	982.03210	-378.47375	19.10894	502.67361	-365.61188	-248.53668	498.92001	-54.39948	-42.38700	87.04502	-380.42969	-326.56250	98.30773	-195.51848	
474	4.730	37.68457	1462.50610	-97.93382							-68.21648	1554.95374	-43.06012	-63.27571	1516.97791	-430.15469	-209.57948	1452.62024	-60.85620	-76.79808	1323.07751	-211.95769	-266.51108	1533.54126	-279.10110	-14.11864	1221.97314	-497.50000	-152.34280	1205.53479	64.07442	46.56725	983.09271	-426.55103	64.30494	1094.13049	108.09142	10.17204	944.36218	-322.12350	-140.21417	951.12427	-89.45370	-275.63538	982.20862	-379.23282	19.82077	502.24954	-365.45193	-248.64023	499.05908	-55.74448	-41.84789	86.56450	-380.27499	-326.57355	98.30833	-195.50552	
475	4.740	39.03564	1462.04541	-98.69461							-67.20808	1554.92871	-43.13692	-62.39226	1516.87878	-429.88272	-206.89075	1453.34973	-60.60254	-75.76503	1322.81677	-212.36865	-265.10373	1533.70715	-279.59940	-13.87670	1221.68066	-498.67606	-150.42133	1205.73230	64.43053	47.17836	983.23346	-426.97400	67.12401	1094.28064	108.10545	10.78332	944.31476	-323.10303	-139.38412	950.58508	-89.57410	-275.11584	982.24414	-379.24091	20.32109	502.21045	-365.56265	-247.80103	498.58490	-57.82050	-42.01774	86.91262	-380.65448	-326.75861	98.55875	-195.68440	
476	4.750	40.10815	1461.84729	-98.89655							-66.01764	1554.75574	-43.60621	-61.08604	1516.44958	-429.69553	-205.63873	1452.91052	-61.18483	-75.15940	1322.35059	-212.56245	-263.86349	1533.61218	-279.30496	-13.24374	1221.62415	-499.06229	-147.31796	1206.25720	64.45988	48.52676	983.26300	-426.51202	69.08466	1094.66003	108.57504	11.15632	944.02875	-323.67859	-138.53850	950.70911	-89.83440	-274.79550	982.28741	-379.83429	20.86778	501.83463	-365.89957	-248.32117	498.61230	-58.76553	-42.64383	86.78703	-380.97485	-326.76794	98.57290	-195.67972	
477	4.760	41.80426	1461.45959	-98.90378							-64.00680	1554.17505	-43.75507	-60.45209	1516.51257	-430.45093	-204.20691	1452.95691	-60.78369	-74.28606	1322.27417	-213.12535	-262.63379	1533.56531	-279.50659	-12.22854	1221.84070	-499.77988	-145.53265	1206.52344	64.74923	48.71087	982.95245	-428.07098	71.79639	1095.14075	108.59539	12.08888	943.50366	-323.82407	-137.77864	950.74994	-90.04111	-274.29904	982.31445	-379.99988	20.83786	501.60016	-366.75693	-247.49597	497.85608	-61.28262	-42.20753	86.68870	-380.29147	-326.65680	98.69144	-195.95399	
478	4.770	42.79280	1461.70032	-99.60893							-62.66034	1554.15857	-43.93967	-59.28969	1516.56628	-431.82480	-200.95561	1452.55750	-59.81657	-73.03981	1322.38489	-212.50133	-261.34097	1533.45667	-279.18585	-11.64113	1221.56262	-499.56531	-142.82368	1207.13574	64.84682	48.63135	982.67542	-428.31531	73.71160	1095.35706	109.42165	12.36115	943.51404	-324.20322	-137.32248	950.83398	-89.99605	-273.86639	982.57031	-380.82434	21.13815	501.75848	-367.10425	-247.69250	497.84280	-62.91928	-42.75693	86.41447	-381.09076	-326.74728	98.54385	-195.70963	
479	4.780	44.50899	1461.51196	-99.29371							-61.93024	1554.44519	-44.04075	-58.40789	1516.25220	-431.82019	-200.48692	1452.74329	-60.53014	-71.81007	1322.12830	-212.58690	-259.79169	1533.80127	-279.14310	-11.13152	1221.33643	-499.40073	-141.36197	1207.31409	64.86090	48.88900	982.46277	-428.38129	75.80246	1094.73767	109.06130	12.63332	943.33392	-324.97745	-136.24608	950.77588	-90.06718	-273.36978	983.02277	-381.16510	21.75464	501.81030	-368.16550	-247.08833	497.61053	-64.34417	-42.02974	86.25616	-380.43179	-326.64935	98.69498	-195.96373	
480	4.790	45.71001	1460.81689	-99.66776							-60.78921	1554.41687	-44.24673	-57.76019	1516.59973	-431.67014	-198.75760	1453.28235	-60.30924	-70.54263	1322.04065	-213.56982	-259.06793	1533.75195	-278.82718	-10.04490	1221.89233	-502.77670	-138.88245	1207.24719	64.58026	49.48585	982.56610	-428.95700	77.67567	1095.70215	109.53305	13.61108	943.04736	-325.27908	-135.73914	950.81268	-90.16212	-272.97281	983.18536	-381.38742	22.15284	501.70819	-368.29938	-246.62233	497.21854	-66.15351	-42.40144	86.49317	-380.48511	-326.64191	98.70432	-195.95905	
481	4.800	45.86364	1460.22058	-100.00983							-58.20632	1554.00952	-44.51320	-57.11295	1516.53015	-431.75717	-196.89078	1453.39990	-59.96048	-69.69855	1321.84387	-213.66473	-257.92285	1533.53247	-278.52081	-9.51529	1221.88147	-502.83994	-137.04535	1207.52478	64.79288	50.11422	982.50977	-429.71582	79.87432	1095.50635	109.53138	14.12419	943.21393	-325.68622	-134.93565	950.58313	-90.42215	-272.60922	983.34583	-381.59158	21.89951	501.52469	-368.52991	-245.71967	497.23846	-67.65963	-42.71373	86.36159	-381.11456	-326.61520	98.69061	-195.96307	
